<?xml version="1.0" encoding="iso-8859-1"?>
<!-- Generator: Adobe Illustrator 19.0.0, SVG Export Plug-In . SVG Version: 6.00 Build 0)  -->
<svg version="1.1" id="Layer_1" xmlns="http://www.w3.org/2000/svg" xmlns:xlink="http://www.w3.org/1999/xlink" x="0px" y="0px"
	 viewBox="0 0 504.632 504.632" style="enable-background:new 0 0 504.632 504.632;" xml:space="preserve">
<polygon style="fill:#F94646;" points="504.368,156.676 400.384,52.692 399.576,51.86 399.576,51.86 399.464,51.772 399.416,51.5 
	310.792,20.316 193.576,20.316 104.968,51.5 104.904,51.612 104.808,51.788 104.904,51.612 103.984,52.668 0,156.668 77.304,235.22 
	115.456,195.828 115.456,484.316 387.456,484.316 387.456,195.828 426.336,235.22 "/>
<polygon style="fill:#E53030;" points="504.368,156.676 400.384,52.692 399.416,51.5 399.576,51.86 399.464,51.772 399.416,51.5 
	310.792,20.316 193.576,20.316 104.808,51.548 104.808,51.548 104.968,51.66 104.808,51.788 103.984,52.652 24.496,181.14 
	77.304,235.212 115.456,195.828 115.456,484.316 387.456,484.316 387.456,195.828 426.336,235.22 "/>
<polyline style="fill:#CC2323;" points="195.456,484.316 387.456,484.316 387.456,195.828 426.336,235.22 504.632,156.676 
	399.4,51.772 399.584,51.86 399.584,51.86 399.472,51.772 399.424,51.5 310.792,20.316 195.456,20.316 "/>
<g>
	<polyline style="fill:#B20606;" points="386.416,195.828 426.688,235.22 504.368,156.676 399.416,51.82 399.576,51.86 
		399.576,51.86 399.464,51.772 399.416,51.82 	"/>
	<path style="fill:#B20606;" d="M252.56,116.316c5.8-16,64.184-90.248,65.184-92.064l-22.952-3.936h-85.216l-22.936,3.936
		c1,1.816,59.384,76.064,65.168,92.064H252.56z"/>
</g>
<path style="fill:#4F0606;" d="M252.56,100.316c5.8-16,64.184-74.248,65.184-76.064l-22.952-3.936h-85.216l-22.936,3.936
	c1,1.816,59.384,60.064,65.168,76.064H252.56z"/>
<path style="fill:#2D0202;" d="M252.56,100.316c5.8-16,64.184-74.248,65.184-76.064l-22.952,4.064h-85.216l-22.936-4.064
	c1,1.816,59.384,60.064,65.168,76.064H252.56z"/>
<path style="fill:#EFD27F;" d="M309.384,164.468c-31.592-31.576-82.816-31.576-114.392,0.008c-31.592,31.6-31.592,82.816,0,114.4
	c31.576,31.592,82.8,31.592,114.392,0C340.984,247.284,340.984,196.06,309.384,164.468z M232,241.852
	c-11.16-11.152-11.16-29.232,0-40.384c11.144-11.152,29.232-11.152,40.376,0c11.16,11.168,11.16,29.232,0,40.384
	C261.232,253.004,243.152,253.012,232,241.852z"/>
<path style="fill:#E2A050;" d="M305.776,168.092c-29.592-29.592-77.576-29.592-107.168,0s-29.592,77.568,0,107.16
	c29.592,29.6,77.576,29.608,107.168,0.008C335.368,245.668,335.368,197.684,305.776,168.092z M233.28,240.588
	c-10.456-10.448-10.456-27.392,0-37.832c10.44-10.448,27.376-10.456,37.832-0.008s10.44,27.392,0,37.832
	C260.656,251.028,243.712,251.036,233.28,240.588z"/>
<g>
	<path style="fill:#D38939;" d="M327.968,220.316h-48.984c-0.032,0-0.032,0.96-0.048,1.104
		c-0.248,14.584-12.128,26.664-26.736,26.664c-14.784-0.008-26.768-11.8-26.768-26.592l-49.016,0.096
		c0,41.84,33.92,75.136,75.768,75.136C294.04,296.74,327.984,260.316,327.968,220.316z"/>
	<path style="fill:#D38939;" d="M225.824,221.668h-0.392H225.824z"/>
</g>
<path style="fill:#E53030;" d="M280,280.06c0.832,0.08,1.672,0.128,2.512,0.152c6.16,1.384,12.888-0.304,17.672-5.096
	c1.688-1.68,2.968-3.6,3.888-5.632c5.112-6.872,6.496-15.64,4.128-23.528c0.264-0.576,0.528-1.16,0.752-1.752
	c0.952-0.712,1.856-1.488,2.736-2.344c8.36-8.36,9.952-20.904,4.856-30.872c1.968-8.624-0.376-18.024-7.096-24.736
	c-2.496-2.496-5.376-4.392-8.456-5.696c-0.096-6.68-2.672-13.344-7.784-18.456c-8.36-8.368-20.92-9.968-30.904-4.84
	c-8.064-5.224-18.36-5.648-26.784-1.192c-8.936-2.496-18.92-0.248-25.936,6.784c-4.264,4.256-6.736,9.608-7.512,15.144
	c-1.16,0.84-2.312,1.768-3.36,2.832c-3.784,3.784-6.168,8.424-7.184,13.28c-1.472,0.896-2.872,1.952-4.144,3.224
	c-5.592,5.584-7.504,13.464-5.784,20.624c-3.296,9.344-1.248,20.16,6.216,27.624c0.344,0.336,0.688,0.616,1.016,0.928
	c0.232,4.56,2.064,9.056,5.544,12.544c0.608,0.624,1.28,1.16,1.952,1.688c1.08,4.664,3.424,9.128,7.08,12.768
	c4.64,4.648,10.576,7.192,16.64,7.696c0.216,0.232,0.424,0.496,0.656,0.72c8.672,8.688,21.872,10.056,32.032,4.2
	c7.424,5.144,17.688,4.416,24.28-2.184C278.216,282.748,279.2,281.436,280,280.06z M232,241.852
	c-11.16-11.152-11.16-29.232,0-40.384c11.144-11.152,29.232-11.152,40.376,0c11.16,11.168,11.16,29.232,0,40.384
	C261.232,253.004,243.152,253.012,232,241.852z"/>
<path style="fill:#CC2323;" d="M207.712,259.236c0.112,0.752,0.232,1.496,0.392,2.208c0.08,5.704,2.952,11.224,8.144,14.44
	c1.832,1.112,3.768,1.832,5.752,2.216c7.08,3.056,15.048,2.44,21.472-1.288c0.544,0.128,1.096,0.24,1.672,0.304
	c0.832,0.672,1.704,1.328,2.624,1.888c9.064,5.592,20.392,4.384,28.064-2.168c7.952-0.08,15.688-4.072,20.168-11.352
	c1.688-2.728,2.72-5.656,3.216-8.592c5.84-1.488,11.144-5.136,14.544-10.664c5.56-9.08,4.376-20.4-2.184-28.08
	c2.872-8.16,1.08-17.248-4.544-23.712c0.312-8.32-3.752-16.608-11.36-21.28c-4.608-2.848-9.816-3.896-14.832-3.416
	c-0.984-0.848-2.016-1.656-3.16-2.376c-4.112-2.52-8.672-3.624-13.16-3.52c-1.08-1.096-2.296-2.096-3.672-2.952
	c-6.08-3.728-13.36-3.768-19.264-0.768c-8.856-0.936-17.904,3.12-22.888,11.216c-0.216,0.352-0.392,0.728-0.576,1.088
	c-3.952,1.152-7.528,3.688-9.84,7.472c-0.44,0.672-0.768,1.368-1.08,2.048c-3.872,1.936-7.28,4.912-9.704,8.856
	c-3.112,5.032-4.096,10.76-3.264,16.184c-0.16,0.232-0.344,0.472-0.496,0.728c-5.8,9.416-4.248,21.24,3,28.912
	c-2.952,7.576-0.184,16.408,6.984,20.816C205,258.236,206.352,258.82,207.712,259.236z M231.152,209.236
	c7.44-12.08,23.264-15.832,35.344-8.416c12.096,7.44,15.128,22.216,7.688,34.296c-7.488,12.088-22.488,16.936-34.624,9.488
	C227.48,237.18,223.712,221.34,231.152,209.236z"/>
<g>
	
		<ellipse transform="matrix(0.1127 -0.9936 0.9936 0.1127 88.7637 418.9638)" style="fill:#F94646;" cx="278.968" cy="159.781" rx="2.704" ry="8.216"/>
	
		<ellipse transform="matrix(-0.36 -0.9329 0.9329 -0.36 147.6918 425.314)" style="fill:#F94646;" cx="219.724" cy="162" rx="2.44" ry="7.376"/>
	
		<ellipse transform="matrix(-0.8516 -0.5242 0.5242 -0.8516 241.9086 476.0081)" style="fill:#F94646;" cx="188.335" cy="203.761" rx="1.664" ry="5.08"/>
	
		<ellipse transform="matrix(-0.9939 0.1102 -0.1102 -0.9939 395.5989 437.297)" style="fill:#F94646;" cx="185.715" cy="229.581" rx="2.56" ry="7.8"/>
	<path style="fill:#F94646;" d="M210.856,167.916c0.72,0.344,0.456,2.392-0.592,4.56c-1.032,2.184-2.472,3.68-3.184,3.312
		c-0.72-0.32-0.456-2.368,0.592-4.544S210.152,167.572,210.856,167.916z"/>
</g>
<path style="fill:#FFEFC7;" d="M261.792,181.148c-0.904,0.904-2.392,0.904-3.296,0l0,0c-0.904-0.912-0.904-2.392,0-3.304l8.72-8.72
	c0.904-0.912,2.392-0.904,3.296,0l0,0c0.904,0.912,0.904,2.384,0,3.296L261.792,181.148z"/>
<g>
	<path style="fill:#A0D128;" d="M280.352,193.244c0.184,1.28-0.672,2.48-1.952,2.672l0,0c-1.28,0.192-2.472-0.688-2.656-1.96
		l-1.872-12.184c-0.2-1.28,0.672-2.472,1.952-2.656l0,0c1.264-0.192,2.472,0.672,2.656,1.944L280.352,193.244z"/>
	<path style="fill:#A0D128;" d="M222.136,201.188c0.84,1.008,0.672,2.48-0.328,3.288l0,0c-1,0.816-2.472,0.664-3.28-0.344
		l-7.768-9.584c-0.816-1-0.656-2.456,0.344-3.272l0,0c1-0.816,2.472-0.656,3.28,0.344L222.136,201.188z"/>
	<path style="fill:#A0D128;" d="M221.888,251.748c1,0.832,1.128,2.296,0.312,3.288l0,0c-0.84,0.976-2.312,1.112-3.296,0.28
		l-9.472-7.896c-0.984-0.832-1.112-2.296-0.28-3.288l0,0c0.832-0.992,2.296-1.12,3.28-0.288L221.888,251.748z"/>
</g>
<g>
	<path style="fill:#FFEFC7;" d="M206.776,224.884c-1.168-0.56-1.688-1.928-1.144-3.112l0,0c0.528-1.16,1.936-1.672,3.096-1.136
		l11.2,5.16c1.168,0.544,1.672,1.936,1.144,3.096l0,0c-0.528,1.168-1.92,1.68-3.096,1.152L206.776,224.884z"/>
	<path style="fill:#FFEFC7;" d="M290.792,214.54c-0.36-1.216,0.344-2.52,1.576-2.88l0,0c1.232-0.368,2.512,0.336,2.904,1.568
		l3.512,11.816c0.36,1.256-0.36,2.536-1.576,2.896l0,0c-1.232,0.376-2.544-0.336-2.904-1.568L290.792,214.54z"/>
	<path style="fill:#FFEFC7;" d="M227.088,184.092c-1-0.232-1.56-1.456-1.264-2.704l0,0c0.312-1.256,1.36-2.064,2.36-1.824
		l9.528,2.296c1,0.232,1.56,1.448,1.248,2.696l0,0c-0.296,1.248-1.344,2.08-2.344,1.832L227.088,184.092z"/>
</g>
<g>
	<path style="fill:#91EDEA;" d="M293.2,202.524c-0.72,0.72-2.048,0.576-2.952-0.328l0,0c-0.92-0.92-1.064-2.232-0.328-2.96
		l6.92-6.944c0.736-0.728,2.048-0.584,2.968,0.336l0,0c0.904,0.904,1.064,2.232,0.328,2.96L293.2,202.524z"/>
	<path style="fill:#91EDEA;" d="M206.152,215.42c-0.72,0.72-2.048,0.576-2.952-0.344l0,0c-0.904-0.904-1.08-2.224-0.344-2.96
		l6.936-6.928c0.72-0.728,2.032-0.576,2.936,0.328l0,0c0.92,0.912,1.08,2.24,0.36,2.968L206.152,215.42z"/>
	<path style="fill:#91EDEA;" d="M277.984,255.98c-1.016-0.144-1.704-1.28-1.512-2.56l0,0c0.184-1.28,1.16-2.2,2.184-2.048
		l9.704,1.392c1,0.152,1.672,1.296,1.504,2.56l0,0c-0.184,1.272-1.16,2.184-2.184,2.056L277.984,255.98z"/>
	<path style="fill:#91EDEA;" d="M251.088,173.9c0.144,1.016-0.784,1.984-2.064,2.16l0,0c-1.28,0.168-2.424-0.512-2.56-1.528
		l-1.312-9.72c-0.16-1,0.768-1.968,2.064-2.152l0,0c1.264-0.168,2.424,0.52,2.544,1.52L251.088,173.9z"/>
	<path style="fill:#91EDEA;" d="M245.248,256.38c-0.72-0.744-0.528-2.064,0.392-2.96l0,0c0.936-0.88,2.264-1.008,2.968-0.264
		l6.784,7.08c0.72,0.736,0.528,2.056-0.408,2.952l0,0c-0.92,0.888-2.248,1.008-2.952,0.28L245.248,256.38z"/>
</g>
<path style="fill:#A0D128;" d="M284.84,240.42c-0.704-0.736-0.512-2.064,0.408-2.944l0,0c0.952-0.888,2.28-1.008,2.984-0.256
	l6.752,7.096c0.704,0.752,0.512,2.08-0.408,2.968l0,0c-0.936,0.88-2.28,1.008-2.968,0.248L284.84,240.42z"/>
<g>
	<path style="fill:#FFEFC7;" d="M262.92,258.956c-0.184-1,0.688-2.008,1.952-2.256l0,0c1.264-0.224,2.44,0.392,2.624,1.408
		l1.816,9.64c0.184,1-0.688,2.016-1.952,2.256l0,0c-1.28,0.224-2.456-0.4-2.64-1.4L262.92,258.956z"/>
	<path style="fill:#FFEFC7;" d="M234.344,256.436c0.264-1,1.472-1.544,2.72-1.224l0,0c1.248,0.312,2.064,1.376,1.816,2.368
		l-2.424,9.512c-0.264,0.984-1.472,1.536-2.72,1.216l0,0c-1.248-0.312-2.064-1.384-1.816-2.384L234.344,256.436z"/>
</g>
<path style="fill:#B20606;" d="M231.152,209.236c7.44-12.08,23.264-15.832,35.344-8.416c12.096,7.44,15.856,23.28,8.44,35.368
	c-0.216,0.336-0.44,0.616-0.672,0.944c1.28-1.392,2.456-2.912,3.472-4.576c8.84-14.344,4.36-33.128-9.968-41.944
	c-14.344-8.832-33.128-4.344-41.952,9.976c-8.816,14.352-4.344,33.136,9.984,41.952c1.08,0.656,2.168,1.208,3.28,1.728
	C227.4,236.708,223.808,221.164,231.152,209.236z"/>
<g>
	<circle style="fill:#EFD27F;" cx="236.264" cy="170.38" r="2.12"/>
	<circle style="fill:#EFD27F;" cx="277.144" cy="244.076" r="2.12"/>
</g>
<g>
	<circle style="fill:#FFCE00;" cx="216.144" cy="183.116" r="2.112"/>
	<circle style="fill:#FFCE00;" cx="259.352" cy="273.78" r="2.12"/>
	<circle style="fill:#FFCE00;" cx="215.832" cy="215.172" r="1.336"/>
	<circle style="fill:#FFCE00;" cx="279.944" cy="263.564" r="1.336"/>
</g>
<g>
	<circle style="fill:#91EDEA;" cx="225.408" cy="192.38" r="1.336"/>
	<circle style="fill:#91EDEA;" cx="287.304" cy="226.324" r="1.328"/>
</g>
<path style="fill:#FFEFC7;" d="M205.448,202.132c-0.496,0.504-1.36,0.52-1.888-0.008c-0.512-0.512-0.496-1.376,0.016-1.88
	c0.512-0.512,1.36-0.512,1.872,0C205.984,200.764,205.984,201.604,205.448,202.132z"/>
<g>
	<circle style="fill:#FFCE00;" cx="302.744" cy="209.036" r="2.112"/>
	<circle style="fill:#FFCE00;" cx="211.352" cy="234.412" r="2.112"/>
</g>
<circle style="fill:#91EDEA;" cx="227.848" cy="245.756" r="2.112"/>
<circle style="fill:#FFCE00;" cx="246.952" cy="268.556" r="2.12"/>
<g>
	<circle style="fill:#EFD27F;" cx="291.096" cy="184.532" r="2.112"/>
	<circle style="fill:#EFD27F;" cx="299.736" cy="236.556" r="2.112"/>
</g>
<g>
</g>
<g>
</g>
<g>
</g>
<g>
</g>
<g>
</g>
<g>
</g>
<g>
</g>
<g>
</g>
<g>
</g>
<g>
</g>
<g>
</g>
<g>
</g>
<g>
</g>
<g>
</g>
<g>
</g>
</svg>
