<?xml version="1.0" encoding="iso-8859-1"?>
<!-- Generator: Adobe Illustrator 19.0.0, SVG Export Plug-In . SVG Version: 6.00 Build 0)  -->
<svg version="1.1" id="Layer_1" xmlns="http://www.w3.org/2000/svg" xmlns:xlink="http://www.w3.org/1999/xlink" x="0px" y="0px"
	 viewBox="0 0 512 512" style="enable-background:new 0 0 512 512;" xml:space="preserve">
<g>
	<path style="fill:#DEDEE1;" d="M8.678,329.646c17.174,0,153.314,0.165,208.271,8.123c54.958,7.949,241.178,22.615,295.051-17.356
		v-34.156c0,0-49.898,33.992-295.051,17.356C87.04,294.795,27.657,295.194,8.678,295.49V329.646z"/>
	<path style="fill:#4482C3;" d="M216.949,303.612C462.102,320.248,512,286.256,512,286.256
		c-19.525-41.941-186.576-29.653-269.086-104.136c0,0-7.984,3.992-17.703,9.962c-42.869,26.338-95.284,31.779-143.091,16.08
		c-14.119-4.634-29.887-10.344-47.477-17.365c0,0-38.591,57.986-21.027,104.63C36.873,295.186,96.629,295.446,216.949,303.612"/>
	<g>
		<path style="fill:#285680;" d="M246.958,230.21c-2.222,0-4.443-0.85-6.135-2.543c-3.393-3.393-3.393-8.886,0-12.271l20.853-20.853
			c3.393-3.384,8.886-3.384,12.271,0c3.393,3.393,3.393,8.886,0,12.271l-20.853,20.853
			C251.401,229.359,249.179,230.21,246.958,230.21"/>
		<path style="fill:#285680;" d="M277.695,242.866c-2.222,0-4.443-0.85-6.135-2.543c-3.393-3.393-3.393-8.878,0-12.271
			l18.588-18.588c3.384-3.384,8.878-3.384,12.271,0c3.384,3.393,3.384,8.886,0,12.271l-18.588,18.588
			C282.138,242.016,279.916,242.866,277.695,242.866"/>
		<path style="fill:#285680;" d="M307.348,256.608c-2.222,0-4.443-0.85-6.135-2.543c-3.393-3.384-3.393-8.878,0-12.271
			l20.332-20.341c3.384-3.384,8.878-3.384,12.271,0c3.384,3.384,3.384,8.886,0,12.271l-20.332,20.341
			C311.791,255.757,309.569,256.608,307.348,256.608"/>
		<path style="fill:#285680;" d="M34.712,208.315C15.568,208.315,0,192.747,0,173.603c0-4.79,3.879-8.678,8.678-8.678
			s8.678,3.888,8.678,8.678c0,9.572,7.784,17.356,17.356,17.356c4.799,0,8.678,3.888,8.678,8.678S39.511,208.315,34.712,208.315"/>
		<path style="fill:#285680;" d="M26.034,225.654c-2.933,0-5.823,0.191-8.669,0.512c-7.359,20.246-12.453,46.141-3.749,69.268
			c14.327-0.156,42.565-0.104,90.199,1.857C100.517,257.19,66.985,225.654,26.034,225.654"/>
		<path style="fill:#285680;" d="M415.839,249.455c-9.225,31.614-103.433,28.264-103.433,28.264
			c-14.379,0-26.034,11.655-26.034,26.034v3.445c185.344,6.396,225.627-20.94,225.627-20.94
			C503.139,267.21,463.81,259.339,415.839,249.455"/>
	</g>
</g>
<g>
</g>
<g>
</g>
<g>
</g>
<g>
</g>
<g>
</g>
<g>
</g>
<g>
</g>
<g>
</g>
<g>
</g>
<g>
</g>
<g>
</g>
<g>
</g>
<g>
</g>
<g>
</g>
<g>
</g>
</svg>
