<?xml version="1.0" encoding="iso-8859-1"?>
<!-- Generator: Adobe Illustrator 19.0.0, SVG Export Plug-In . SVG Version: 6.00 Build 0)  -->
<svg version="1.1" id="Layer_1" xmlns="http://www.w3.org/2000/svg" xmlns:xlink="http://www.w3.org/1999/xlink" x="0px" y="0px"
	 viewBox="0 0 503.467 503.467" style="enable-background:new 0 0 503.467 503.467;" xml:space="preserve">
<g transform="translate(1 1)">
	<path style="fill:#80D6FA;" d="M250.733,361.667c-17.92-7.68-32.427-20.48-43.52-34.133l0,0
		c-12.8-15.36-21.333-32.427-26.453-46.08c-5.12-12.8-7.68-22.187-7.68-22.187s29.867-8.533,38.4,17.067
		c2.56,8.533,10.24,20.48,19.627,32.427c10.24,11.947,23.04,23.04,35.84,27.307l51.2,15.36L306.2,380.44L250.733,361.667
		L250.733,361.667z M319,351.427l51.2,15.36c-17.067,31.573-42.667,20.48-42.667,20.48l-20.48-6.827L319,351.427z"/>
	<path style="fill:#AAB1BA;" d="M327.533,131.267h8.533c0,0,34.133-4.267,34.133-25.6s-34.133-25.6-34.133-25.6h-8.533h-51.2v51.2
		H327.533L327.533,131.267z M183.32,148.333L183.32,148.333c6.827-8.533,8.533-17.067,17.067-17.067h25.6v-51.2h-25.6
		c-7.68,0-10.24-8.533-17.067-17.067l0,0c0,0-25.6,8.533-25.6,42.667c0,6.827,0.853,12.8,2.56,17.92
		c-1.707-5.12-2.56-11.093-2.56-17.92c0-34.133,25.6-42.667,25.6-42.667l0,0c-6.827-8.533-17.92-17.067-42.667-17.067H97.987
		c-33.28,0-59.733,26.453-59.733,59.733S64.707,165.4,97.987,165.4h42.667C165.4,165.4,176.493,156.867,183.32,148.333z
		 M225.133,131.267h51.2v-51.2h-51.2V131.267z"/>
	<path style="fill:#ECF4F7;" d="M356.547,464.067H3.267l0,0v25.6c0,5.12,4.267,8.533,8.533,8.533h324.267l16.213-26.453l0.853,0.853
		l25.6,25.6h102.4c9.387,0,17.067-7.68,17.067-17.067v-25.6H361.667L356.547,464.067z"/>
	<path style="fill:#80D6FA;" d="M319,3.267c102.4,0,179.2,34.987,179.2,102.4c0,68.267-76.8,102.4-179.2,102.4
		c-51.2,0-221.867-8.533-221.867-8.533c-46.08,0-93.867-37.547-93.867-93.867S43.373,11.8,97.133,11.8
		C97.133,11.8,267.8,3.267,319,3.267L319,3.267z M276.333,80.067h-51.2h-25.6c-7.68,0-10.24-8.533-17.067-17.067
		s-17.92-17.067-42.667-17.067H97.133c-33.28,0-59.733,26.453-59.733,59.733S63.853,165.4,97.133,165.4H139.8
		c25.6,0,36.693-8.533,42.667-17.067c6.827-8.533,8.533-17.067,17.067-17.067h25.6h51.2h51.2h8.533c0,0,34.133-4.267,34.133-25.6
		s-34.133-25.6-34.133-25.6h-8.533H276.333z M498.2,455.533H361.667l-5.12,8.533H3.267l0,0c0-47.787,0-145.067,0-145.067
		c0-11.093,14.507-11.093,25.6,0c11.093,11.093,34.987,18.773,68.267,11.093c59.733,75.093,204.8,100.693,204.8,100.693l25.6-42.667
		c0,0,25.6,11.093,42.667-20.48l68.267,20.48C472.6,395.8,498.2,421.4,498.2,455.533z"/>
	<path style="fill:#AAB1BA;" d="M327.533,387.267l-25.6,42.667c0,0-145.067-25.6-204.8-100.693
		c17.92-4.267,37.547-12.8,59.733-27.307c0,0,13.653-7.68,24.747-20.48c5.12,13.653,13.653,30.72,26.453,46.08
		c11.093,13.653,24.747,25.6,43.52,34.133l56.32,18.773L327.533,387.267z"/>
</g>
<path style="fill:#51565F;" d="M371.2,503.467c-2.56,0-4.267-1.707-4.267-4.267c0-2.56,1.707-4.267,4.267-4.267h110.933
	c7.68,0,12.8-5.12,12.8-12.8V460.8H365.227l-24.747,40.96c-0.853,0.853-2.56,1.707-3.413,1.707H12.8c-6.827,0-12.8-5.973-12.8-12.8
	V320c0-1.707,0.853-2.56,1.707-3.413c5.973-4.267,20.48-10.24,31.573,0c8.533,8.533,30.72,17.92,63.147,10.24
	c0.853,0,0.853-0.853,1.707-0.853c16.213-4.267,35.84-12.8,57.173-27.307c1.707-1.707,4.267-0.853,5.973,0.853
	c1.707,1.707,0.853,4.267-0.853,5.973c-19.627,12.8-37.547,21.333-54.613,26.453c55.467,63.147,174.933,89.6,195.413,93.013
	l21.333-35.84L308.054,384c0,0,0,0-0.853,0l-56.32-18.773h-0.853c-60.587-26.453-78.507-102.4-79.36-104.96
	c-0.853-2.56,0.853-4.267,2.56-5.12c11.947-3.413,35.84-3.413,43.52,19.627c5.973,17.92,29.867,49.493,52.907,57.173l0,0l51.2,15.36
	l0,0l51.2,15.36l0,0l68.267,20.48c37.547,9.387,62.293,37.547,62.293,72.533v25.6c0,11.947-9.387,21.333-21.333,21.333
	L371.2,503.467L371.2,503.467z M8.533,469.333v21.333c0,2.56,2.56,4.267,4.267,4.267h321.707l24.747-40.96
	c0.853-0.853,2.56-1.707,3.413-1.707h132.267c-1.707-28.16-23.893-52.053-56.32-59.733l-65.707-19.627
	c-14.507,23.893-34.987,22.187-42.667,20.48l-23.893,40.107c-0.853,1.707-2.56,2.56-4.267,1.707
	c-5.973-0.853-145.067-26.453-205.653-99.84c-31.573,6.827-56.32,0.853-69.973-11.947c-6.827-6.827-14.507-2.56-17.92-0.853v139.093
	H320c2.56,0,4.267,1.707,4.267,4.267s-1.707,4.267-4.267,4.267H8.533V469.333z M330.24,384c3.413,0.853,20.48,6.827,34.133-14.507
	l-41.813-12.8l-8.533,21.333L330.24,384L330.24,384z M258.56,360.107l47.787,16.213l8.533-21.333l-43.52-12.8L258.56,360.107z
	 M215.04,329.387c9.387,11.093,21.333,21.333,35.84,28.16l11.947-17.92c-11.093-5.12-21.333-13.653-29.867-23.893L215.04,329.387z
	 M180.053,263.68c2.56,10.24,11.093,35.84,29.013,59.733l17.067-13.653c-8.533-11.093-15.36-22.187-17.92-29.867
	C203.947,261.973,187.733,262.827,180.053,263.68z M320,213.333c-50.347,0-220.16-8.533-221.867-8.533l0,0
	C51.2,204.8,0,167.253,0,106.667C0,48.64,40.107,8.533,98.133,8.533C99.84,8.533,269.653,0,320,0
	c113.493,0,183.467,40.96,183.467,106.667S433.493,213.333,320,213.333z M320,8.533c-50.347,0-220.16,8.533-221.867,8.533
	c-52.907,0-89.6,36.693-89.6,89.6c0,55.467,46.933,89.6,89.6,89.6c1.707,0,171.52,8.533,221.867,8.533
	c107.52,0,174.933-37.547,174.933-98.133S428.373,8.533,320,8.533z M371.2,170.667c-1.707,0-3.413-0.853-4.267-2.56
	c-9.387-27.307-21.333-31.573-29.867-31.573c0,0,0,0-0.853,0H332.8v12.8c0,2.56-1.707,4.267-4.267,4.267s-4.267-1.707-4.267-4.267
	v-12.8H281.6v12.8c0,2.56-1.707,4.267-4.267,4.267s-4.267-1.707-4.267-4.267v-12.8H230.4v12.8c0,2.56-1.707,4.267-4.267,4.267
	s-4.267-1.707-4.267-4.267v-12.8h-21.333c-2.56,0-4.267,2.56-8.533,7.68c-6.827,10.24-16.213,26.453-51.2,26.453H98.133
	c-34.987,0-64-29.013-64-64s29.013-64,64-64H140.8c34.987,0,45.227,15.36,51.2,26.453c3.413,5.973,5.12,7.68,8.533,7.68h21.333V64
	c0-2.56,1.707-4.267,4.267-4.267S230.4,61.44,230.4,64v12.8h42.667V64c0-2.56,1.707-4.267,4.267-4.267S281.6,61.44,281.6,64v12.8
	h42.667V64c0-2.56,1.707-4.267,4.267-4.267S332.8,61.44,332.8,64v12.8h4.267c9.387,0,20.48-3.413,29.867-31.573
	c0.853-2.56,3.413-3.413,5.12-2.56c2.56,0.853,3.413,3.413,2.56,5.12c-5.12,16.213-12.8,27.307-21.333,32.427
	c10.24,4.267,22.187,11.947,22.187,25.6c0,14.507-11.093,22.187-22.187,25.6c9.387,5.12,16.213,16.213,21.333,32.427
	c0.853,2.56-0.853,4.267-2.56,5.12C372.053,170.667,372.053,170.667,371.2,170.667z M98.133,51.2
	c-30.72,0-55.467,24.747-55.467,55.467s24.747,55.467,55.467,55.467H140.8c19.627,0,29.867-5.12,35.84-11.093
	c-8.533-5.12-23.04-17.067-23.04-44.373s15.36-39.253,23.04-44.373C170.667,56.32,160.427,51.2,140.8,51.2H98.133z M182.613,69.12
	c-5.973,3.413-20.48,12.8-20.48,37.547s14.507,34.133,20.48,37.547c0.853-1.707,1.707-2.56,2.56-4.267
	c3.413-5.973,7.68-11.947,15.36-11.947h21.333V85.333h-21.333c-7.68,0-11.947-5.973-15.36-11.947
	C184.32,71.68,183.467,70.827,182.613,69.12z M332.8,128h4.267c0,0,29.867-3.413,29.867-21.333c0-17.067-29.013-21.333-30.72-21.333
	l0,0H332.8V128z M281.6,128h42.667V85.333H281.6V128z M230.4,128h42.667V85.333H230.4V128z"/>
<g>
</g>
<g>
</g>
<g>
</g>
<g>
</g>
<g>
</g>
<g>
</g>
<g>
</g>
<g>
</g>
<g>
</g>
<g>
</g>
<g>
</g>
<g>
</g>
<g>
</g>
<g>
</g>
<g>
</g>
</svg>
