<?xml version="1.0" encoding="iso-8859-1"?>
<!-- Generator: Adobe Illustrator 19.0.0, SVG Export Plug-In . SVG Version: 6.00 Build 0)  -->
<svg version="1.1" id="Layer_1" xmlns="http://www.w3.org/2000/svg" xmlns:xlink="http://www.w3.org/1999/xlink" x="0px" y="0px"
	 viewBox="0 0 371.597 371.597" style="enable-background:new 0 0 371.597 371.597;" xml:space="preserve">
<g>
	<path style="fill:#5C6670;" d="M249.169,65.902v-51.5C249.169,6.48,242.688,0,234.768,0H122.165
		c-7.921,0-14.402,6.48-14.402,14.402v51.5H249.169z"/>
	<path style="fill:#5C6670;" d="M249.169,305.695v51.5c0,7.922-6.481,14.402-14.402,14.402H122.165
		c-7.921,0-14.402-6.48-14.402-14.402v-51.5H249.169z"/>
	<path style="fill:#333E48;" d="M102.264,305.693c-19.589,0-35.526-15.935-35.526-35.525v-168.74
		c0-19.59,15.937-35.525,35.526-35.525h152.405c19.589,0,35.526,15.936,35.526,35.525v168.74c0,19.59-15.937,35.525-35.526,35.525
		H102.264z"/>
	<path style="fill:#1E252B;" d="M102.264,289.172c-10.479,0-19.004-8.525-19.004-19.004v-168.74
		c0-10.478,8.525-19.004,19.004-19.004h152.405c10.479,0,19.004,8.525,19.004,19.004v168.74c0,10.479-8.525,19.004-19.004,19.004
		H102.264z"/>
	<rect x="290.195" y="127.469" style="fill:#A4A9AD;" width="14.665" height="46.371"/>
	<g>
		<circle style="fill:#FFFFFF;" cx="178.465" cy="185.799" r="30.162"/>
		<circle style="fill:#FF6D68;" cx="178.465" cy="131.867" r="14.196"/>
		<circle style="fill:#5E96DC;" cx="140.331" cy="147.663" r="14.196"/>
		<circle style="fill:#FFC843;" cx="124.535" cy="185.798" r="14.196"/>
		<circle style="fill:#0071CE;" cx="140.33" cy="223.933" r="14.197"/>
		<circle style="fill:#BF534F;" cx="178.465" cy="239.729" r="14.196"/>
		<circle style="fill:#FF6D68;" cx="216.6" cy="223.934" r="14.196"/>
		<circle style="fill:#0071CE;" cx="232.396" cy="185.8" r="14.196"/>
		<path style="fill:#E0B03B;" d="M226.641,157.701c5.543-5.545,5.543-14.533-0.002-20.076c-5.543-5.545-14.531-5.545-20.076,0.002
			c-5.544,5.541-5.544,14.529,0,20.074C212.107,163.246,221.095,163.246,226.641,157.701z"/>
	</g>
</g>
<g>
</g>
<g>
</g>
<g>
</g>
<g>
</g>
<g>
</g>
<g>
</g>
<g>
</g>
<g>
</g>
<g>
</g>
<g>
</g>
<g>
</g>
<g>
</g>
<g>
</g>
<g>
</g>
<g>
</g>
</svg>
